<svg width="20" height="522" viewBox="0 0 20 522" fill="none" xmlns="http://www.w3.org/2000/svg">
<g clip-path="url(#clip0_5530_2388)">
<path d="M10.0002 6.1111C10.9224 6.1111 11.6668 5.36666 11.6668 4.44444C11.6668 3.52222 10.9224 2.77777 10.0002 2.77777C9.07794 2.77777 8.3335 3.52222 8.3335 4.44444C8.3335 5.36666 9.07794 6.1111 10.0002 6.1111ZM10.0002 8.33333C9.07794 8.33333 8.3335 9.07777 8.3335 9.99999C8.3335 10.9222 9.07794 11.6667 10.0002 11.6667C10.9224 11.6667 11.6668 10.9222 11.6668 9.99999C11.6668 9.07777 10.9224 8.33333 10.0002 8.33333ZM10.0002 13.8889C9.07794 13.8889 8.3335 14.6333 8.3335 15.5555C8.3335 16.4778 9.07794 17.2222 10.0002 17.2222C10.9224 17.2222 11.6668 16.4778 11.6668 15.5555C11.6668 14.6333 10.9224 13.8889 10.0002 13.8889Z" fill="#545F7D"/>
</g>
<g clip-path="url(#clip1_5530_2388)">
<path d="M10.0002 68.1111C10.9224 68.1111 11.6668 67.3667 11.6668 66.4444C11.6668 65.5222 10.9224 64.7778 10.0002 64.7778C9.07794 64.7778 8.3335 65.5222 8.3335 66.4444C8.3335 67.3667 9.07794 68.1111 10.0002 68.1111ZM10.0002 70.3333C9.07794 70.3333 8.3335 71.0778 8.3335 72C8.3335 72.9222 9.07794 73.6667 10.0002 73.6667C10.9224 73.6667 11.6668 72.9222 11.6668 72C11.6668 71.0778 10.9224 70.3333 10.0002 70.3333ZM10.0002 75.8889C9.07794 75.8889 8.3335 76.6333 8.3335 77.5555C8.3335 78.4778 9.07794 79.2222 10.0002 79.2222C10.9224 79.2222 11.6668 78.4778 11.6668 77.5555C11.6668 76.6333 10.9224 75.8889 10.0002 75.8889Z" fill="#545F7D"/>
</g>
<g clip-path="url(#clip2_5530_2388)">
<path d="M10.0002 131.111C10.9224 131.111 11.6668 130.367 11.6668 129.444C11.6668 128.522 10.9224 127.778 10.0002 127.778C9.07794 127.778 8.3335 128.522 8.3335 129.444C8.3335 130.367 9.07794 131.111 10.0002 131.111ZM10.0002 133.333C9.07794 133.333 8.3335 134.078 8.3335 135C8.3335 135.922 9.07794 136.667 10.0002 136.667C10.9224 136.667 11.6668 135.922 11.6668 135C11.6668 134.078 10.9224 133.333 10.0002 133.333ZM10.0002 138.889C9.07794 138.889 8.3335 139.633 8.3335 140.556C8.3335 141.478 9.07794 142.222 10.0002 142.222C10.9224 142.222 11.6668 141.478 11.6668 140.556C11.6668 139.633 10.9224 138.889 10.0002 138.889Z" fill="#545F7D"/>
</g>
<g clip-path="url(#clip3_5530_2388)">
<path d="M10.0002 256.111C10.9224 256.111 11.6668 255.367 11.6668 254.444C11.6668 253.522 10.9224 252.778 10.0002 252.778C9.07794 252.778 8.3335 253.522 8.3335 254.444C8.3335 255.367 9.07794 256.111 10.0002 256.111ZM10.0002 258.333C9.07794 258.333 8.3335 259.078 8.3335 260C8.3335 260.922 9.07794 261.667 10.0002 261.667C10.9224 261.667 11.6668 260.922 11.6668 260C11.6668 259.078 10.9224 258.333 10.0002 258.333ZM10.0002 263.889C9.07794 263.889 8.3335 264.633 8.3335 265.556C8.3335 266.478 9.07794 267.222 10.0002 267.222C10.9224 267.222 11.6668 266.478 11.6668 265.556C11.6668 264.633 10.9224 263.889 10.0002 263.889Z" fill="#545F7D"/>
</g>
<g clip-path="url(#clip4_5530_2388)">
<path d="M10.0002 382.111C10.9224 382.111 11.6668 381.367 11.6668 380.444C11.6668 379.522 10.9224 378.778 10.0002 378.778C9.07794 378.778 8.3335 379.522 8.3335 380.444C8.3335 381.367 9.07794 382.111 10.0002 382.111ZM10.0002 384.333C9.07794 384.333 8.3335 385.078 8.3335 386C8.3335 386.922 9.07794 387.667 10.0002 387.667C10.9224 387.667 11.6668 386.922 11.6668 386C11.6668 385.078 10.9224 384.333 10.0002 384.333ZM10.0002 389.889C9.07794 389.889 8.3335 390.633 8.3335 391.556C8.3335 392.478 9.07794 393.222 10.0002 393.222C10.9224 393.222 11.6668 392.478 11.6668 391.556C11.6668 390.633 10.9224 389.889 10.0002 389.889Z" fill="#545F7D"/>
</g>
<g clip-path="url(#clip5_5530_2388)">
<path d="M10.0002 508.111C10.9224 508.111 11.6668 507.367 11.6668 506.444C11.6668 505.522 10.9224 504.778 10.0002 504.778C9.07794 504.778 8.3335 505.522 8.3335 506.444C8.3335 507.367 9.07794 508.111 10.0002 508.111ZM10.0002 510.333C9.07794 510.333 8.3335 511.078 8.3335 512C8.3335 512.922 9.07794 513.667 10.0002 513.667C10.9224 513.667 11.6668 512.922 11.6668 512C11.6668 511.078 10.9224 510.333 10.0002 510.333ZM10.0002 515.889C9.07794 515.889 8.3335 516.633 8.3335 517.556C8.3335 518.478 9.07794 519.222 10.0002 519.222C10.9224 519.222 11.6668 518.478 11.6668 517.556C11.6668 516.633 10.9224 515.889 10.0002 515.889Z" fill="#545F7D"/>
</g>
<g clip-path="url(#clip6_5530_2388)">
<path d="M10.0002 194.111C10.9224 194.111 11.6668 193.367 11.6668 192.444C11.6668 191.522 10.9224 190.778 10.0002 190.778C9.07794 190.778 8.3335 191.522 8.3335 192.444C8.3335 193.367 9.07794 194.111 10.0002 194.111ZM10.0002 196.333C9.07794 196.333 8.3335 197.078 8.3335 198C8.3335 198.922 9.07794 199.667 10.0002 199.667C10.9224 199.667 11.6668 198.922 11.6668 198C11.6668 197.078 10.9224 196.333 10.0002 196.333ZM10.0002 201.889C9.07794 201.889 8.3335 202.633 8.3335 203.556C8.3335 204.478 9.07794 205.222 10.0002 205.222C10.9224 205.222 11.6668 204.478 11.6668 203.556C11.6668 202.633 10.9224 201.889 10.0002 201.889Z" fill="#545F7D"/>
</g>
<g clip-path="url(#clip7_5530_2388)">
<path d="M10.0002 319.111C10.9224 319.111 11.6668 318.367 11.6668 317.444C11.6668 316.522 10.9224 315.778 10.0002 315.778C9.07794 315.778 8.3335 316.522 8.3335 317.444C8.3335 318.367 9.07794 319.111 10.0002 319.111ZM10.0002 321.333C9.07794 321.333 8.3335 322.078 8.3335 323C8.3335 323.922 9.07794 324.667 10.0002 324.667C10.9224 324.667 11.6668 323.922 11.6668 323C11.6668 322.078 10.9224 321.333 10.0002 321.333ZM10.0002 326.889C9.07794 326.889 8.3335 327.633 8.3335 328.556C8.3335 329.478 9.07794 330.222 10.0002 330.222C10.9224 330.222 11.6668 329.478 11.6668 328.556C11.6668 327.633 10.9224 326.889 10.0002 326.889Z" fill="#545F7D"/>
</g>
<g clip-path="url(#clip8_5530_2388)">
<path d="M10.0002 445.111C10.9224 445.111 11.6668 444.367 11.6668 443.444C11.6668 442.522 10.9224 441.778 10.0002 441.778C9.07794 441.778 8.3335 442.522 8.3335 443.444C8.3335 444.367 9.07794 445.111 10.0002 445.111ZM10.0002 447.333C9.07794 447.333 8.3335 448.078 8.3335 449C8.3335 449.922 9.07794 450.667 10.0002 450.667C10.9224 450.667 11.6668 449.922 11.6668 449C11.6668 448.078 10.9224 447.333 10.0002 447.333ZM10.0002 452.889C9.07794 452.889 8.3335 453.633 8.3335 454.556C8.3335 455.478 9.07794 456.222 10.0002 456.222C10.9224 456.222 11.6668 455.478 11.6668 454.556C11.6668 453.633 10.9224 452.889 10.0002 452.889Z" fill="#545F7D"/>
</g>
<defs>
<clipPath id="clip0_5530_2388">
<rect width="20" height="20" fill="white"/>
</clipPath>
<clipPath id="clip1_5530_2388">
<rect width="20" height="20" fill="white" transform="translate(0 62)"/>
</clipPath>
<clipPath id="clip2_5530_2388">
<rect width="20" height="20" fill="white" transform="translate(0 125)"/>
</clipPath>
<clipPath id="clip3_5530_2388">
<rect width="20" height="20" fill="white" transform="translate(0 250)"/>
</clipPath>
<clipPath id="clip4_5530_2388">
<rect width="20" height="20" fill="white" transform="translate(0 376)"/>
</clipPath>
<clipPath id="clip5_5530_2388">
<rect width="20" height="20" fill="white" transform="translate(0 502)"/>
</clipPath>
<clipPath id="clip6_5530_2388">
<rect width="20" height="20" fill="white" transform="translate(0 188)"/>
</clipPath>
<clipPath id="clip7_5530_2388">
<rect width="20" height="20" fill="white" transform="translate(0 313)"/>
</clipPath>
<clipPath id="clip8_5530_2388">
<rect width="20" height="20" fill="white" transform="translate(0 439)"/>
</clipPath>
</defs>
</svg>
